<?xml version="1.0" encoding="UTF-8" standalone="no"?>
<!-- Created with Inkscape (http://www.inkscape.org/) -->

<svg
   xmlns:dc="http://purl.org/dc/elements/1.1/"
   xmlns:cc="http://creativecommons.org/ns#"
   xmlns:rdf="http://www.w3.org/1999/02/22-rdf-syntax-ns#"
   xmlns:svg="http://www.w3.org/2000/svg"
   xmlns="http://www.w3.org/2000/svg"
   xmlns:sodipodi="http://sodipodi.sourceforge.net/DTD/sodipodi-0.dtd"
   xmlns:inkscape="http://www.inkscape.org/namespaces/inkscape"
   version="1.1"
   id="svg2"
   width="240"
   height="240"
   viewBox="0 0 240 240"
   sodipodi:docname="logo.svg"
   inkscape:version="0.92.3 (2405546, 2018-03-11)">
  <metadata
     id="metadata8">
    <rdf:RDF>
      <cc:Work
         rdf:about="">
        <dc:format>image/svg+xml</dc:format>
        <dc:type
           rdf:resource="http://purl.org/dc/dcmitype/StillImage" />
        <dc:title></dc:title>
      </cc:Work>
    </rdf:RDF>
  </metadata>
  <defs
     id="defs6" />
  <sodipodi:namedview
     pagecolor="#ffffff"
     bordercolor="#666666"
     borderopacity="1"
     objecttolerance="10"
     gridtolerance="10"
     guidetolerance="10"
     inkscape:pageopacity="0"
     inkscape:pageshadow="2"
     inkscape:window-width="1331"
     inkscape:window-height="713"
     id="namedview4"
     showgrid="false"
     inkscape:showpageshadow="false"
     fit-margin-top="0"
     fit-margin-left="0"
     fit-margin-right="0"
     fit-margin-bottom="0"
     inkscape:zoom="0.98333333"
     inkscape:cx="112.88135"
     inkscape:cy="137.28814"
     inkscape:window-x="35"
     inkscape:window-y="27"
     inkscape:window-maximized="1"
     inkscape:current-layer="svg2" />
  <g
     id="g835">
    <path
       style="fill:#fbfbfc;stroke-width:1.33333337"
       d="M 0,120 V 0 H 120 240 V 120 240 H 120 0 Z"
       id="path849"
       inkscape:connector-curvature="0" />
    <path
       style="fill:#b1b3c9;stroke-width:1.33333337"
       d="M 0,120 V 0 H 120 240 V 120 240 H 120 0 Z m 160.30573,69.28821 c 6.06518,-0.69738 11.48268,-1.27253 12.0389,-1.27809 0.55621,-0.005 0.25621,-1.22527 -0.66667,-2.71045 -1.00075,-1.61051 -3.74584,-3.03256 -6.80169,-3.52354 -2.81806,-0.45276 -6.78155,-2.21814 -8.80776,-3.92309 -3.55031,-2.98739 -32.75616,-42.61899 -34.22159,-46.43783 -0.80619,-2.10089 21.43393,-29.62028 26.383,-32.645689 1.70688,-1.043429 5.50341,-2.608773 8.43675,-3.478542 6.48852,-1.923923 8.14593,-5.969707 2.43109,-5.934367 -2.07043,0.0128 -9.16443,0.91052 -15.76443,1.994925 -6.6,1.084406 -14.25,1.973931 -17,1.976722 -4.44309,0.0045 -5,0.376346 -5,3.338408 0,3 0.53334,3.333333 5.33334,3.333333 2.93333,0 5.33333,0.648 5.33333,1.44001 0,4.34076 -27.99341,33.22666 -32.200051,33.22666 -0.623305,0 -1.133282,-19.57851 -1.133282,-43.507793 v -43.50779 l -5,0.826449 c -2.75,0.454547 -9.35,0.833052 -14.666667,0.841123 -9.357535,0.0142 -9.666667,0.118813 -9.666667,3.271344 0,2.878174 0.65859,3.30432 5.666667,3.666666 l 5.666667,0.409998 0.362284,60.666663 c 0.361394,60.51787 0.355309,60.67239 -2.481046,63 -1.56383,1.28334 -4.876858,2.33334 -7.362284,2.33334 -3.931329,0 -4.518954,0.43345 -4.518954,3.33333 v 3.33333 H 89.333333 112 V 186 c 0,-2.83069 -0.61638,-3.33333 -4.08765,-3.33333 -9.001326,0 -9.245683,-0.60031 -9.245683,-22.71358 V 140 h 3.302323 c 4.14704,0 9.04264,6.08612 26.03101,32.36131 12.55588,19.41962 12.70433,19.58488 16.9724,18.89293 2.36815,-0.38393 9.26815,-1.26864 15.33333,-1.96603 z"
       id="path847"
       inkscape:connector-curvature="0" />
    <path
       style="fill:#8f90b1;stroke-width:1.33333337"
       d="M 0,120 V 0 H 120 240 V 120 240 H 120 0 Z m 162.33333,69.79828 c 6.05,-0.47357 11,-1.23841 11,-1.69965 0,-2.30788 -4.47046,-6.7653 -6.78509,-6.7653 -7.66835,0 -11.33899,-3.5183 -28.43624,-27.25613 -14.85604,-20.62615 -16.75447,-23.84705 -15.21003,-25.80564 8.17246,-10.36397 21.85108,-26.0037 24.70959,-28.2522 1.93175,-1.519511 6.1094,-3.416712 9.28368,-4.216005 4.82148,-1.214064 5.77143,-1.985799 5.77143,-4.688726 0,-2.990053 -0.37926,-3.175653 -5,-2.446929 -14.20138,2.239656 -21.71659,3.298757 -28.66667,4.039928 -7.00382,0.746901 -7.66667,1.097489 -7.66667,4.05498 0,2.888068 0.57548,3.237392 5.33334,3.237392 2.93333,0 5.32861,0.45 5.32283,1 -0.006,0.55 -4.50497,6.31493 -9.99823,12.81096 -9.50671,11.24213 -18.34635,19.52237 -20.84128,19.52237 C 100.5175,133.33333 100,114.0444 100,90.469044 V 47.604753 l -11,0.856299 c -6.05,0.470964 -13.25,0.859895 -16,0.864289 -4.442313,0.0071 -5,0.379783 -5,3.341326 C 68,55.637427 68.551111,56 73.066667,56 c 2.786666,0 5.786666,0.72 6.666666,1.6 2.026835,2.026835 2.308296,115.03011 0.299668,120.3132 -0.961512,2.52896 -2.264336,3.42488 -5,3.43833 -6.896688,0.034 -9.870164,1.44846 -9.436293,4.48894 0.390725,2.73813 1.11998,2.83757 23.403292,3.19101 l 23,0.36483 v -3.21343 c 0,-2.77676 -0.79928,-3.33329 -5.8819,-4.09548 -3.41798,-0.51256 -6.210641,-1.73872 -6.666669,-2.92711 -0.43162,-1.12478 -0.784764,-10.39598 -0.784764,-20.60268 0,-17.95989 0.09013,-18.55761 2.798383,-18.55761 4.06626,0 8.14705,4.97379 24.53495,29.90389 L 140.66667,192.21557 146,191.43744 c 2.93333,-0.42797 10.28333,-1.1656 16.33333,-1.63916 z"
       id="path845"
       inkscape:connector-curvature="0" />
    <path
       style="fill:#6c6e99;stroke-width:1.33333337"
       d="M 0,120 V 0 H 120 240 V 120 240 H 120 0 Z m 162.33333,69.87027 c 6.68852,-0.54947 10.98338,-1.48504 10.9576,-2.38696 -0.0837,-2.92604 -3.64417,-6.14998 -6.79205,-6.14998 -7.09593,0 -11.77859,-4.55768 -28.53629,-27.77474 l -16.67907,-23.10808 8.92751,-10.89192 c 14.96738,-18.26082 17.79168,-20.818215 25.44937,-23.04437 5.97088,-1.73578 7.00627,-2.515396 7.00627,-5.275497 0,-3.82248 0.65393,-3.773051 -16.48502,-1.246026 -7.43324,1.095984 -16.27727,2.319594 -19.65339,2.719134 -5.66273,0.670142 -6.08981,0.980677 -5.51123,4.007302 C 121.55509,99.53384 122.3799,100 126.8221,100 c 2.84785,0 5.1779,0.36207 5.1779,0.80461 0,3.15327 -27.66699,32.52872 -30.63688,32.52872 -0.90006,0 -1.36312,-14.41862 -1.36312,-42.444441 0,-23.344445 -0.249797,-42.694445 -0.555105,-43 -0.30531,-0.305556 -7.50531,-0.012 -16,0.652338 C 68.476717,49.711837 68,49.845589 68,52.87456 c 0,2.63306 0.682671,3.128656 4.333333,3.145857 8.80336,0.04148 8.333334,-3.439761 8.333334,61.720583 0,47.22615 -0.35744,59.60385 -1.770512,61.31064 -0.973782,1.17619 -4.273782,2.32073 -7.333334,2.54344 -4.95861,0.36093 -5.608645,0.80317 -5.984717,4.07159 l -0.421897,3.66666 h 24.088564 24.088559 v -3.25164 c 0,-2.83456 -0.77434,-3.36774 -6.03708,-4.15694 -3.79561,-0.56919 -6.51837,-1.8046 -7.333337,-3.32738 -1.57292,-2.93902 -1.747174,-36.82797 -0.194301,-37.7877 3.748288,-2.31656 7.877928,2.21157 24.220438,26.55765 l 17.25494,25.70533 5.04466,-1.14936 c 2.77458,-0.63216 9.99468,-1.55601 16.04468,-2.05302 z"
       id="path843"
       inkscape:connector-curvature="0" />
    <path
       style="fill:#545789;stroke-width:1.33333337"
       d="M 0,120 V 0 H 120 240 V 120 240 H 120 0 Z m 158.70927,70.42488 c 8.35218,-0.92872 14.60588,-2.22628 14.58166,-3.02551 -0.0908,-2.99817 -3.51542,-5.69144 -8.39845,-6.605 -7.07815,-1.32422 -11.76016,-6.20289 -28.72509,-29.9316 L 121.53188,130.39222 133.61615,115.8021 C 145.53417,101.4127 150.14241,97.682237 158,96.062853 c 3.10236,-0.63937 4.09468,-1.636561 4.42189,-4.44361 0.50714,-4.350366 0.0524,-4.395542 -16.52026,-1.641268 -6.5459,1.087886 -14.90163,2.137886 -18.5683,2.333333 -6.17879,0.329353 -6.69754,0.623691 -7.08856,4.022025 -0.39904,3.468039 -0.12818,3.666667 5,3.666667 3.0646,0 5.4219,0.63967 5.4219,1.47127 0,3.7067 -26.1329,31.86206 -29.57334,31.86206 C 100.492,133.33333 100,113.80615 100,89.939583 V 46.545832 l -4.333333,0.6754 c -2.383334,0.371469 -9.583334,1.052519 -16,1.513443 C 68.629781,49.527479 68,49.738021 68,52.634967 c 0,2.607146 0.891703,3.195969 6,3.962005 l 6,0.899756 v 60.421712 c 0,47.03437 -0.373021,60.73129 -1.683573,61.81895 -0.925966,0.76848 -4.075966,1.59194 -7,1.82993 -4.681134,0.38097 -5.366842,0.87083 -5.738323,4.09935 l -0.421897,3.66666 h 24.088564 24.088559 v -3.30793 c 0,-3.35195 -1.39362,-4.09636 -9.33333,-4.98547 l -3.33333,-0.37326 -0.36744,-20.21743 c -0.360354,-19.82768 -0.314609,-20.20361 2.37299,-19.50079 3.81474,0.99758 8.54263,7.08128 24.31729,31.29079 8.33414,12.79048 14.34489,20.76021 15.38642,20.40109 0.94011,-0.32413 8.29011,-1.32109 16.33334,-2.21545 z"
       id="path841"
       inkscape:connector-curvature="0" />
    <path
       style="fill:#282b6c;stroke-width:1.33333337"
       d="M 0,120 V 0 H 120 240 V 120 240 H 120 0 Z m 160,70.51252 c 7.7,-0.85053 14.19795,-1.71173 14.43987,-1.91379 0.24193,-0.20205 -0.5468,-1.87322 -1.75275,-3.71373 -1.48404,-2.26492 -3.93227,-3.64027 -7.57568,-4.25583 -7.39876,-1.25001 -10.78284,-4.75778 -28.19807,-29.22872 l -15.13452,-21.26622 11.81386,-14.06711 C 145.39795,102.01025 153.17027,96 159.54304,96 c 2.58181,0 3.12363,-0.693836 3.12363,-4 0,-3.497589 -0.47166,-4 -3.75512,-4 -2.06532,0 -7.31532,0.666372 -11.66667,1.480827 -4.35135,0.814456 -12.11155,1.864456 -17.24488,2.333333 -9.29204,0.848735 -9.33333,0.870205 -9.33333,4.852507 0,3.653783 0.45409,4.057703 5.24646,4.666663 L 131.1596,102 119.91313,115.12665 c -6.18555,7.21965 -13.19646,14.32857 -15.5798,15.7976 L 100,133.5952 V 90.19584 46.796476 L 88.333333,47.468371 C 68.887087,48.588299 68,48.846807 68,53.393751 c 0,3.780246 0.242671,3.939582 6,3.939582 h 6 v 60.619757 c 0,58.56836 -0.08728,60.66646 -2.579012,62 -1.418456,0.75914 -4.718456,1.38024 -7.333333,1.38024 -4.393691,0 -4.754322,0.30342 -4.754322,4 v 4 h 24.088563 24.088564 l -0.4219,-3.66666 c -0.37681,-3.2749 -1.06299,-3.7379 -6.42189,-4.33334 l -6,-0.66666 L 100.29769,161 c -0.356322,-18.99208 -0.27619,-19.66667 2.33609,-19.66667 3.14479,0 8.49015,6.93227 26.03289,33.7614 9.97922,15.26182 12.44906,18.23543 14.66666,17.65826 C 144.8,192.37125 152.3,191.36304 160,190.51252 Z"
       id="path839"
       inkscape:connector-curvature="0" />
    <path
       style="fill:#262a6a;stroke-width:1.33333337"
       d="m 149.08333,192.42252 c 0.9625,-0.38516 2.1125,-0.3378 2.55556,0.1052 0.44306,0.44305 -0.34445,0.75819 -1.75,0.70029 -1.55326,-0.064 -1.8692,-0.37992 -0.80556,-0.80554 z m 9.94204,-1.34651 c 1.2973,-0.33805 3.0973,-0.31582 4,0.0495 0.90271,0.36524 -0.1587,0.64183 -2.3587,0.61465 -2.2,-0.0272 -2.93859,-0.326 -1.6413,-0.66405 z M 113.59327,186 c 0.0272,-2.2 0.32599,-2.93859 0.66405,-1.64129 0.33806,1.29729 0.31583,3.09729 -0.0494,4 C 113.84269,189.26141 113.56609,188.2 113.59327,186 Z M 67.75,180.42252 c 0.9625,-0.38516 2.1125,-0.3378 2.555556,0.1052 0.443055,0.44305 -0.344445,0.75819 -1.75,0.70029 -1.553257,-0.064 -1.8692,-0.37992 -0.805556,-0.80554 z m 39.27538,-0.0133 c 1.29729,-0.33806 3.09729,-0.31583 4,0.0495 0.90271,0.36524 -0.15871,0.64183 -2.35871,0.61466 -2.2,-0.0272 -2.93858,-0.326 -1.64129,-0.66406 z m -6.73422,-20.07586 c -0.26548,-17.32397 -0.0853,-18.9982 2.04217,-18.97958 1.61669,0.0141 1.83393,0.33773 0.70732,1.05357 -1.11125,0.70607 -1.75777,6.71473 -2.04217,18.97959 l -0.41616,17.94642 z m -21.305699,-42.58618 -0.318794,-58.919509 -5,-0.523017 -5,-0.523016 5.041846,-0.224137 c 2.986832,-0.132787 5.302455,0.455182 5.681232,1.442529 0.351662,0.916667 0.47629,27.766667 0.276948,59.66667 l -0.362436,58 z m 35.681209,1.74944 c 0,-0.27687 1.05,-1.32687 2.33333,-2.33333 2.11474,-1.65849 2.1619,-1.61133 0.50341,0.50341 -1.74183,2.22099 -2.83674,2.9273 -2.83674,1.82992 z m 10,-16.82992 c -3.95147,-1.00548 -3.93838,-1.01974 1.07869,-1.17558 3.08057,-0.0957 4.75448,0.36682 4.25464,1.17558 -0.45323,0.73333 -0.93863,1.26234 -1.07869,1.17558 -0.14005,-0.0868 -2.05464,-0.61578 -4.25464,-1.17558 z m -5.74007,-6.000003 c 0.0272,-2.2 0.326,-2.938582 0.66405,-1.641291 0.33806,1.297289 0.31583,3.097289 -0.0494,4 -0.36523,0.902709 -0.64182,-0.158709 -0.61465,-2.358709 z M 159.75,96.422515 c 0.96249,-0.385162 2.11249,-0.337792 2.55556,0.105266 0.44305,0.443056 -0.34445,0.758188 -1.75,0.700294 -1.55327,-0.06397 -1.8692,-0.379922 -0.80556,-0.805556 z M 123,91.080899 c 1.28333,-0.33537 3.38333,-0.33537 4.66667,0 1.28333,0.33537 0.23333,0.609764 -2.33334,0.609764 -2.56666,0 -3.61666,-0.274394 -2.33333,-0.609764 z m 14,-1.297274 c 0.91667,-0.369882 2.41667,-0.369882 3.33333,0 0.91667,0.369884 0.16667,0.672515 -1.66666,0.672515 -1.83334,0 -2.58334,-0.302631 -1.66667,-0.672515 z m 17.33333,-2.666666 c 0.91667,-0.369883 2.41667,-0.369883 3.33334,0 0.91666,0.369884 0.16666,0.672514 -1.66667,0.672514 -1.83333,0 -2.58333,-0.30263 -1.66667,-0.672514 z M 77.685,47.043225 c 2.026749,-0.306473 5.026749,-0.298282 6.666667,0.0182 1.639916,0.316483 -0.01833,0.567232 -3.685,0.557223 C 77,47.608648 75.658249,47.349697 77.685,47.043225 Z M 95.75,45.755848 c 0.9625,-0.385161 2.1125,-0.337792 2.555556,0.105267 0.443055,0.443056 -0.344445,0.758188 -1.75,0.700293 -1.553257,-0.06397 -1.8692,-0.379921 -0.805556,-0.805556 z"
       id="path837"
       inkscape:connector-curvature="0" />
  </g>
</svg>
